<svg width="52" height="52" viewBox="0 0 52 52" fill="none" xmlns="http://www.w3.org/2000/svg">
<rect width="52" height="52" rx="26" fill="#FF6B00"/>
<path fill-rule="evenodd" clip-rule="evenodd" d="M30.86 16.9917C31.2453 16.8321 31.6581 16.75 32.0751 16.75C32.492 16.75 32.9049 16.8321 33.2901 16.9917C33.6753 17.1512 34.0253 17.3851 34.3201 17.6799C34.6149 17.9747 34.8488 18.3248 35.0083 18.71C35.1679 19.0952 35.25 19.508 35.25 19.925C35.25 20.3419 35.1679 20.7548 35.0083 21.14C34.8488 21.5252 34.6149 21.8752 34.3201 22.17L33.1693 23.3208L28.6792 18.8307L29.83 17.6799C30.1248 17.3851 30.4748 17.1512 30.86 16.9917ZM27.8307 19.6793L18.2557 29.2542C18.1634 29.3465 18.0968 29.4613 18.0625 29.5872L16.7764 34.3027C16.7056 34.5623 16.7794 34.84 16.9697 35.0303C17.16 35.2206 17.4377 35.2944 17.6974 35.2236L22.4128 33.9375C22.5387 33.9032 22.6535 33.8366 22.7458 33.7443L32.3208 24.1693L27.8307 19.6793Z" fill="white"/>
</svg>
