<svg width="375" height="812" viewBox="0 0 375 812" fill="none" xmlns="http://www.w3.org/2000/svg">
<rect width="375" height="812" fill="#FF6B00"/>
<path d="M168.041 333.131L168.074 333.142C171.119 334.397 172.868 338.322 172.685 344.968C172.503 351.608 170.385 360.735 165.983 371.933L165.983 371.933L165.979 371.942L166.448 372.115C165.979 371.942 165.979 371.942 165.979 371.943L165.979 371.943L165.978 371.946L165.973 371.96L165.953 372.014C165.935 372.062 165.908 372.133 165.872 372.227C165.8 372.414 165.693 372.688 165.553 373.038C165.272 373.737 164.859 374.733 164.33 375.922C163.271 378.301 161.749 381.443 159.897 384.502C158.041 387.568 155.871 390.522 153.521 392.551C151.168 394.584 148.717 395.622 146.256 395.052L145.849 394.958L145.84 394.978C144.627 394.671 143.614 394.199 142.762 393.607L142.482 393.412L142.199 393.602C140.268 394.898 137.924 395.302 136.113 394.908C132.942 394.215 131.101 392.104 130.114 389.24C129.119 386.35 129.008 382.726 129.323 379.139C129.638 375.561 130.372 372.067 131.029 369.464C131.357 368.163 131.666 367.087 131.892 366.337C132.005 365.962 132.097 365.669 132.161 365.47C132.193 365.371 132.218 365.295 132.235 365.244L132.254 365.187L132.259 365.173L132.26 365.17L132.26 365.169C132.26 365.169 132.26 365.169 132.061 365.101L132.26 365.169L132.262 365.162C135.948 353.769 139.909 345.224 143.849 339.671C147.815 334.082 151.639 331.683 155.037 332.172L155.037 332.172C157.066 332.462 158.359 333.501 158.978 334.687L159.254 335.217L159.727 334.851C162.361 332.812 165.093 332.189 168.041 333.131Z" fill="#FFD53F" stroke="#1A1E27"/>
<path d="M159.393 334.4C158.684 333.084 157.25 331.984 155.105 331.674C147.704 330.609 139.168 342.175 131.783 365.005C131.783 365.005 122.479 392.444 136.003 395.393C137.956 395.819 140.437 395.387 142.471 394.024" fill="#FFD53F"/>
<path d="M159.393 334.4C158.684 333.084 157.25 331.984 155.105 331.674C147.704 330.609 139.168 342.175 131.783 365.005C131.783 365.005 122.479 392.444 136.003 395.393C137.956 395.819 140.437 395.387 142.471 394.024" stroke="#1A1E27" stroke-linecap="round" stroke-linejoin="round"/>
<path d="M107.642 392.894L107.642 392.894L107.642 392.894L107.617 392.891L107.592 392.889C102.646 392.661 99.4074 391.043 97.2986 388.795C95.1801 386.538 94.1513 383.591 93.7352 380.623C93.3193 377.657 93.5212 374.708 93.8306 372.492C93.985 371.386 94.1655 370.467 94.3071 369.826C94.3779 369.506 94.4389 369.255 94.4819 369.085C94.5034 369.001 94.5204 368.936 94.5319 368.893L94.5449 368.845L94.548 368.834L94.5487 368.832L94.5488 368.831C94.5488 368.831 94.5488 368.831 94.0676 368.695L94.549 368.83C101.197 345.136 112.676 335.244 121.961 333.021C126.613 331.907 130.715 332.71 133.455 334.64C136.182 336.561 137.588 339.61 136.884 343.124C135.88 348.131 132.986 351.143 129.646 352.963C126.288 354.793 122.477 355.417 119.697 355.603L119.106 355.642L119.244 356.218C119.332 356.582 119.314 357.21 119.201 358.016C119.092 358.802 118.903 359.693 118.696 360.544C118.28 362.247 117.798 363.757 117.753 363.897L117.488 364.715L118.331 364.54C119.285 364.341 120.1 364.264 120.673 364.236C120.96 364.222 121.186 364.221 121.338 364.223C121.414 364.224 121.472 364.226 121.51 364.227C121.528 364.228 121.542 364.229 121.551 364.229L121.557 364.229C121.558 364.229 121.559 364.229 121.56 364.229C125.839 364.536 128.542 365.963 130.157 367.805C131.777 369.652 132.357 371.979 132.272 374.184L132.272 374.184C131.992 381.499 126.101 388.869 118.287 391.604C115.414 392.609 112.745 392.932 110.794 393.002C109.819 393.037 109.025 393.01 108.478 392.973C108.204 392.955 107.993 392.935 107.85 392.92C107.779 392.912 107.726 392.905 107.691 392.901L107.652 392.896L107.643 392.894L107.642 392.894Z" fill="#FFD53F" stroke="#1A1E27"/>
<path d="M107.33 373.25C111.484 363.072 121.593 363.727 121.593 363.727C130.35 364.354 132.949 369.595 132.772 374.2C132.483 381.754 126.425 389.283 118.453 392.072C112.585 394.124 107.569 393.385 107.569 393.385C87.3603 392.454 94.0676 368.691 94.0676 368.691C107.42 321.115 140.359 328.33 137.374 343.219C134.445 357.833 115.825 356.107 115.825 356.107" fill="#FFD53F"/>
<path d="M107.33 373.25C111.484 363.072 121.593 363.727 121.593 363.727C130.35 364.354 132.949 369.595 132.772 374.2C132.483 381.754 126.425 389.283 118.453 392.072C112.585 394.124 107.569 393.385 107.569 393.385C87.3603 392.454 94.0676 368.691 94.0676 368.691C107.42 321.115 140.359 328.33 137.374 343.219C134.445 357.833 115.825 356.107 115.825 356.107" stroke="#1A1E27" stroke-linecap="round" stroke-linejoin="round"/>
<path d="M117.473 364.223C119.466 360.798 119.64 356.336 119.64 356.336Z" fill="#FFD53F"/>
<path d="M117.473 364.223C119.466 360.798 119.64 356.336 119.64 356.336" stroke="#1A1E27" stroke-linecap="round" stroke-linejoin="round"/>
<path d="M142.831 353.382C145.34 351.243 148.58 351.482 148.58 351.482C154.417 337.563 160.648 330.235 168.192 332.651C175.002 335.361 175.269 349.669 166.445 372.114C166.445 372.114 156.883 398.028 146.139 395.538L146.13 395.56C136.385 393.442 137.498 381.69 140.063 374.105" fill="#FFD53F"/>
<path d="M142.831 353.382C145.34 351.243 148.58 351.482 148.58 351.482C154.417 337.563 160.648 330.235 168.192 332.651C175.002 335.361 175.269 349.669 166.445 372.114C166.445 372.114 156.883 398.028 146.139 395.538L146.13 395.56C136.385 393.442 137.498 381.69 140.063 374.105" stroke="#1A1E27" stroke-linecap="round" stroke-linejoin="round"/>
<path d="M196.406 356.131C196.056 355.774 196.056 355.774 196.056 355.774L196.056 355.774L196.053 355.777L196.042 355.788L195.996 355.832C195.955 355.872 195.894 355.93 195.814 356.007C195.653 356.16 195.416 356.384 195.109 356.668C194.495 357.235 193.606 358.042 192.502 358.993C190.294 360.896 187.235 363.376 183.826 365.69C180.414 368.007 176.671 370.143 173.094 371.373C169.517 372.604 166.191 372.9 163.53 371.673C163.522 371.668 163.512 371.662 163.499 371.654C163.463 371.631 163.409 371.595 163.339 371.547C163.2 371.45 163.001 371.301 162.771 371.102C162.311 370.701 161.732 370.099 161.256 369.294C160.318 367.71 159.738 365.281 161.376 361.907C164.752 354.957 177.334 339.204 197.538 331.035C204.794 328.101 210.291 329.45 212.448 332.595C214.581 335.706 213.727 341.023 207.308 346.648L207.666 347.091L207.756 347.504C210.501 346.905 213.635 348.128 216.169 350.261C218.698 352.389 220.502 355.316 220.689 357.943V357.946L220.69 357.963C220.869 360.592 220.346 362.956 218.958 364.727C217.576 366.489 215.279 367.737 211.754 368.025C208.524 368.288 204.908 366.678 202.022 364.26C199.127 361.835 197.1 358.711 196.904 356.094L196.824 355.023L196.056 355.774L196.406 356.131Z" fill="#FFD53F" stroke="#1A1E27"/>
<path d="M207.65 347.012C213.561 345.723 220.803 352.3 221.189 357.923C221.562 363.341 219.053 367.924 211.795 368.517C204.976 369.072 196.826 361.745 196.406 356.125C196.406 356.125 174.645 377.391 163.296 372.109C163.296 372.109 157.499 368.74 160.926 361.683C164.353 354.625 177.021 338.784 197.351 330.565C213.067 324.212 221.777 337.296 204.587 349.412" fill="#FFD53F"/>
<path d="M207.65 347.012C213.561 345.723 220.803 352.3 221.189 357.923C221.562 363.341 219.053 367.924 211.795 368.517C204.976 369.072 196.826 361.745 196.406 356.125C196.406 356.125 174.645 377.391 163.296 372.109C163.296 372.109 157.499 368.74 160.926 361.683C164.353 354.625 177.021 338.784 197.351 330.565C213.067 324.212 221.777 337.296 204.587 349.412" stroke="#1A1E27" stroke-linecap="round" stroke-linejoin="round"/>
<path d="M209.811 374.843L209.814 374.679C209.817 374.843 209.817 374.843 209.817 374.843L209.817 374.843L209.819 374.843L209.826 374.843L209.858 374.843C209.887 374.842 209.93 374.842 209.987 374.842C210.101 374.843 210.269 374.845 210.484 374.85C210.914 374.862 211.53 374.89 212.268 374.955C213.746 375.086 215.701 375.364 217.629 375.953C219.563 376.544 221.431 377.434 222.774 378.764C224.1 380.078 224.933 381.838 224.791 384.243L224.791 384.243C224.724 385.379 224.081 386.498 222.853 387.586C221.626 388.673 219.856 389.69 217.644 390.613C213.221 392.457 207.133 393.883 200.37 394.777C186.839 396.565 170.754 396.204 160.155 392.906L160.153 392.906L160.136 392.9C160.12 392.895 160.097 392.887 160.065 392.875C160.002 392.853 159.908 392.819 159.79 392.773C159.552 392.68 159.216 392.54 158.826 392.351C158.043 391.971 157.062 391.403 156.23 390.643C155.397 389.881 154.744 388.956 154.55 387.86C154.358 386.781 154.597 385.453 155.704 383.844L155.707 383.84C155.717 383.828 155.733 383.809 155.757 383.783C155.803 383.73 155.878 383.649 155.983 383.543C156.192 383.332 156.525 383.022 157.004 382.642C157.961 381.882 159.504 380.842 161.821 379.753C166.454 377.575 174.191 375.2 186.537 374.495L186.836 374.478L186.962 374.206C190.022 367.598 193.952 365.028 197.059 364.078C198.623 363.6 199.997 363.526 200.978 363.571C201.468 363.593 201.859 363.645 202.124 363.691C202.256 363.714 202.357 363.735 202.423 363.75C202.456 363.757 202.481 363.763 202.496 363.767L202.512 363.771L202.513 363.771L202.514 363.772L202.514 363.772L202.514 363.772L202.529 363.776L202.546 363.779C205.285 364.343 206.918 365.89 207.663 367.786C208.417 369.704 208.283 372.033 207.365 374.154L207.058 374.863L207.831 374.852C207.998 374.85 208.161 374.847 208.321 374.844C208.815 374.834 209.287 374.825 209.793 374.843L209.805 374.512L209.808 374.843H209.811Z" fill="#FFD53F" stroke="#1A1E27"/>
<path d="M209.811 374.339C209.124 374.314 208.489 374.339 207.824 374.349C209.746 369.909 208.44 364.478 202.647 363.286C202.647 363.286 192.737 360.544 186.508 373.991C161.713 375.407 155.304 383.539 155.304 383.539C150.609 390.336 160.003 393.379 160.003 393.379C181.393 400.036 224.671 394.798 225.29 384.269C225.894 374.047 209.808 374.339 209.808 374.339H209.811Z" fill="#FFD53F" stroke="#1A1E27" stroke-linecap="round" stroke-linejoin="round"/>
<path d="M202.837 379.544C209.96 376.246 211.279 365.065 202.65 363.286C202.65 363.286 192.612 360.507 186.393 374.25C186.393 374.25 185.358 376.529 185.302 378.833" fill="#FFD53F"/>
<path d="M202.837 379.544C209.96 376.246 211.279 365.065 202.65 363.286C202.65 363.286 192.612 360.507 186.393 374.25C186.393 374.25 185.358 376.529 185.302 378.833" stroke="#1A1E27" stroke-linecap="round" stroke-linejoin="round"/>
<mask id="path-18-inside-1_112_1588" fill="white">
<path d="M237.228 358.971C237.228 358.971 221.398 359.539 216.833 369.136C216.833 369.136 213.636 379.199 230.969 377.65"/>
</mask>
<path d="M237.228 358.971C237.228 358.971 221.398 359.539 216.833 369.136C216.833 369.136 213.636 379.199 230.969 377.65" fill="#FFD53F"/>
<path d="M216.833 369.136L215.93 368.707L215.901 368.768L215.88 368.834L216.833 369.136ZM237.228 358.971C237.192 357.971 237.192 357.971 237.192 357.971C237.192 357.971 237.191 357.971 237.191 357.971C237.19 357.971 237.189 357.971 237.187 357.972C237.185 357.972 237.181 357.972 237.176 357.972C237.167 357.972 237.154 357.973 237.137 357.974C237.104 357.975 237.056 357.978 236.994 357.981C236.87 357.988 236.69 357.999 236.462 358.017C236.005 358.052 235.351 358.114 234.554 358.218C232.962 358.426 230.786 358.806 228.458 359.496C223.856 360.859 218.401 363.511 215.93 368.707L217.736 369.566C219.83 365.164 224.573 362.733 229.027 361.413C231.227 360.761 233.294 360.399 234.813 360.201C235.571 360.102 236.19 360.044 236.617 360.011C236.83 359.994 236.995 359.984 237.105 359.978C237.16 359.975 237.201 359.973 237.228 359.972C237.242 359.971 237.251 359.971 237.257 359.97C237.26 359.97 237.263 359.97 237.264 359.97C237.264 359.97 237.265 359.97 237.265 359.97C237.265 359.97 237.265 359.97 237.265 359.97C237.264 359.97 237.264 359.97 237.228 358.971ZM216.833 369.136C215.88 368.834 215.88 368.834 215.879 368.835C215.879 368.835 215.879 368.836 215.879 368.837C215.878 368.838 215.878 368.839 215.877 368.841C215.877 368.844 215.875 368.848 215.874 368.852C215.871 368.861 215.868 368.872 215.864 368.886C215.856 368.913 215.846 368.95 215.834 368.996C215.81 369.087 215.779 369.215 215.748 369.373C215.686 369.688 215.621 370.129 215.605 370.653C215.572 371.695 215.731 373.108 216.54 374.482C218.207 377.313 222.265 379.432 231.058 378.646L230.88 376.654C222.34 377.417 219.33 375.28 218.263 373.467C217.704 372.518 217.579 371.513 217.604 370.716C217.616 370.32 217.665 369.988 217.711 369.759C217.733 369.645 217.754 369.557 217.769 369.502C217.776 369.474 217.781 369.455 217.785 369.444C217.786 369.439 217.787 369.436 217.787 369.435C217.787 369.434 217.787 369.434 217.787 369.435C217.787 369.435 217.787 369.436 217.787 369.437C217.787 369.437 217.786 369.438 217.786 369.438C217.786 369.438 217.786 369.439 216.833 369.136Z" fill="#1A1E27" mask="url(#path-18-inside-1_112_1588)"/>
<path d="M268.017 358.539C268.586 358.231 268.937 358.054 269.652 357.635C275.138 354.744 276.546 349.305 273.166 347.038C273.085 346.982 272.998 346.926 272.908 346.873C272.871 346.852 272.83 346.83 272.79 346.808C272.653 346.734 272.504 346.662 272.345 346.597C272.327 346.588 272.305 346.582 272.286 346.572C272.125 346.51 271.95 346.451 271.767 346.398C271.733 346.389 271.695 346.38 271.661 346.367C271.5 346.324 271.325 346.287 271.142 346.256C271.08 346.243 271.014 346.234 270.949 346.225C270.75 346.197 270.545 346.172 270.324 346.156C275.334 344.551 277.719 342.25 277.719 342.25C277.719 342.25 282.629 338.785 280.436 333.774C278.082 328.393 258.778 324.574 236.974 332.637C236.974 332.637 218.053 339.664 220.466 351.14C221.831 357.644 230.336 360.02 230.336 360.02C230.336 360.02 220.186 361.904 216.837 369.133C216.837 369.133 215.114 378.361 228.75 377.811C215.91 385.496 219.185 395.733 227.916 395.407H227.923C226.965 399.285 229.838 402.495 233.224 404.02C246.657 410.062 269.945 401.607 273.403 387.576C274.503 383.114 272.75 378.826 268.779 375.762C283.12 370.098 278.62 363.044 278.62 363.044C277.05 359.517 271.543 358.694 268.023 358.536L268.017 358.539Z" fill="#FFD53F"/>
<path d="M230.333 360.02C230.333 360.02 221.828 357.644 220.463 351.14C218.053 339.664 236.972 332.637 236.972 332.637C258.776 324.574 278.08 328.393 280.434 333.774C282.626 338.788 277.716 342.25 277.716 342.25C277.716 342.25 269.217 350.444 250.635 346.681" fill="#FFD53F"/>
<path d="M230.333 360.02C230.333 360.02 221.828 357.644 220.463 351.14C218.053 339.664 236.972 332.637 236.972 332.637C258.776 324.574 278.08 328.393 280.434 333.774C282.626 338.788 277.716 342.25 277.716 342.25C277.716 342.25 269.217 350.444 250.635 346.681" stroke="#1A1E27" stroke-linecap="round" stroke-linejoin="round"/>
<path d="M249.706 358.319C251.563 354.695 256.311 352.329 260.313 353.037C264.315 353.745 266.05 357.254 264.194 360.88C263.338 362.551 261.868 363.954 260.139 364.911" fill="#FFD53F"/>
<path d="M249.706 358.319C251.563 354.695 256.311 352.329 260.313 353.037C264.315 353.745 266.05 357.254 264.194 360.88C263.338 362.551 261.868 363.954 260.139 364.911" stroke="#1A1E27" stroke-linecap="round" stroke-linejoin="round"/>
<path d="M227.912 395.406C219.171 395.732 215.893 385.476 228.782 377.788C231.366 376.248 234.6 374.807 238.568 373.581C261.345 366.527 276.125 376.518 273.398 387.578C269.94 401.609 246.653 410.064 233.22 404.022C229.566 402.379 226.506 398.771 228.216 394.483C230.362 389.103 239.448 385.234 243.808 391.053C244.529 392.015 244.902 393.248 244.759 394.44C244.56 396.073 243.397 397.505 241.923 398.237C240.086 399.15 237.141 399.268 235.365 398.082" fill="#FFD53F"/>
<path d="M227.912 395.406C219.171 395.732 215.893 385.476 228.782 377.788C231.366 376.248 234.6 374.807 238.568 373.581C261.345 366.527 276.125 376.518 273.398 387.578C269.94 401.609 246.653 410.064 233.22 404.022C229.566 402.379 226.506 398.771 228.216 394.483C230.362 389.103 239.448 385.234 243.808 391.053C244.529 392.015 244.902 393.248 244.759 394.44C244.56 396.073 243.397 397.505 241.923 398.237C240.086 399.15 237.141 399.268 235.365 398.082" stroke="#1A1E27" stroke-linecap="round" stroke-linejoin="round"/>
<path d="M237.228 358.968C237.228 358.968 221.398 359.536 216.833 369.133C216.833 369.133 213.913 378.324 228.78 377.787" fill="#FFD53F"/>
<path d="M237.228 358.968C237.228 358.968 221.398 359.536 216.833 369.133C216.833 369.133 213.913 378.324 228.78 377.787" stroke="#1A1E27" stroke-linecap="round" stroke-linejoin="round"/>
<path d="M270.321 346.153C278.415 346.668 275.616 357.921 264.963 358.545C264.963 358.545 276.247 357.731 278.614 363.041C278.614 363.041 283.116 370.095 268.775 375.758" fill="#FFD53F"/>
<path d="M270.321 346.153C278.415 346.668 275.616 357.921 264.963 358.545C264.963 358.545 276.247 357.731 278.614 363.041C278.614 363.041 283.116 370.095 268.775 375.758" stroke="#1A1E27" stroke-linecap="round" stroke-linejoin="round"/>
</svg>
