<svg width="293" height="58" viewBox="0 0 293 58" fill="none" xmlns="http://www.w3.org/2000/svg">
<g filter="url(#filter0_dd_2785_70363)">
<rect x="6" y="4" width="281" height="42" rx="8" fill="#1A1E27"/>
<path d="M29.1914 19.7422H28.2012V31.0537H29.1914V25.0488H31.083V24.2109H29.1914V19.7422ZM20.9521 28.2227H21.8408C23.9863 28.2227 25.4653 28.1592 27.2363 27.8418L27.1094 26.9785C25.4272 27.2896 23.9863 27.3784 21.9424 27.3848V21.6719H26.2207V20.8467H20.9521V28.2227ZM36.834 19.9961C34.3774 19.9961 32.835 20.7896 32.835 22.1416C32.835 23.4746 34.3774 24.2554 36.834 24.249C39.2905 24.2554 40.814 23.4746 40.8203 22.1416C40.814 20.7896 39.2905 19.9961 36.834 19.9961ZM31.6924 26.0518H41.9756V25.2266H31.6924V26.0518ZM32.9492 30.876H40.7188V27.1689H32.9492V30.876ZM33.8633 22.1416C33.8569 21.2974 35.0059 20.7959 36.834 20.7959C38.6431 20.7959 39.7983 21.2974 39.8047 22.1416C39.7983 22.9604 38.6431 23.4556 36.834 23.4619C35.0059 23.4556 33.8569 22.9604 33.8633 22.1416ZM33.9395 30.0635V27.9688H39.7412V30.0635H33.9395ZM55.1914 20.3008H47.4219V21.1133H54.2139V21.2402C54.2139 21.5957 54.2075 21.9639 54.1948 22.3574L47.1426 22.5859L47.2822 23.4365L54.1504 23.1128C54.1123 23.646 54.0361 24.2363 53.8965 24.8965L54.8867 24.9854C55.1978 23.4365 55.1978 22.2876 55.1914 21.2402V20.3008ZM46.2031 26.5596H56.4736V25.7471H51.3955V24.084H50.3926V25.7471H46.2031V26.5596ZM47.5107 30.8506H55.458V30.0381H48.5137V27.5244H47.5107V30.8506ZM67.0107 19.7549H66.0586V28.21H67.0107V19.7549ZM57.959 26.3311H58.6699C60.498 26.3311 61.5645 26.2739 62.8721 26.0137L62.7705 25.2012C61.5581 25.4551 60.5488 25.4932 58.9111 25.5059V23.8555H61.793V23.0684H58.9111V21.5068H62.2627V20.6816H57.959V26.3311ZM59.6475 30.7871H67.3535V29.9492H60.6631V27.2705H59.6475V30.7871ZM62.3262 23.7666H63.8496V27.918H64.8145V19.9834H63.8496V22.9668H62.3262V23.7666ZM78.9951 28.7432H68.6611V29.5811H78.9951V28.7432ZM69.2959 26.0391L69.6895 26.8516C71.4731 26.4834 73.1045 25.5122 73.8091 24.0396C74.52 25.5122 76.145 26.4834 77.9287 26.8516L78.335 26.0391C76.1831 25.6519 74.3169 24.2554 74.3232 22.3828H78.0049V21.5703H74.2979V20.0215H73.3203V21.5703H69.626V22.3828H73.3076C73.3013 24.2554 71.4287 25.6519 69.2959 26.0391ZM90.2305 28.7939H85.5205V26.6611H89.1895V25.8359H82.1816V23.9951H88.9229V20.5801H81.166V21.4053H87.9453V23.1826H81.1914V26.6611H84.543V28.7939H79.8965V29.6318H90.2305V28.7939ZM104.729 28.7559H100.019V26.3184H103.459V20.542H102.481V22.5859H96.6162V20.542H95.6133V26.3184H99.041V28.7559H94.3945V29.5811H104.729V28.7559ZM96.6162 25.5059V23.3984H102.481V25.5059H96.6162ZM114.682 20.8848H106.722V21.71H113.679V22.0146C113.672 23.3667 113.672 24.9473 113.247 27.1055L114.263 27.2197C114.669 24.9473 114.669 23.3984 114.682 22.0146V20.8848ZM105.63 29.4287H115.913V28.6035H110.645V24.5664H109.667V28.6035H105.63V29.4287ZM126.184 19.7549H125.193V26.0264H126.184V19.7549ZM116.941 24.998L117.449 25.7852C118.795 25.3027 119.861 24.2744 120.369 22.9731C120.877 24.1855 121.937 25.1313 123.264 25.582L123.746 24.7949C122.07 24.2427 120.852 22.8462 120.864 21.2783V20.1738H119.849V21.2783C119.849 22.916 118.643 24.4077 116.941 24.998ZM118.566 30.876H126.374V30.0635H124.698V27.5117H126.26V26.6992H118.668V27.5117H120.255V30.0635H118.566V30.876ZM121.232 30.0635V27.5117H123.708V30.0635H121.232ZM138.384 25.6963H128.101V26.5088H138.384V25.6963ZM129.243 22.3828C129.243 23.7856 130.792 24.6299 133.242 24.6299C135.667 24.6299 137.222 23.7856 137.229 22.3828C137.222 20.9673 135.667 20.1357 133.242 20.1484C130.792 20.1357 129.243 20.9673 129.243 22.3828ZM129.434 30.7871H137.241V29.9492H130.437V27.499H129.434V30.7871ZM130.271 22.3828C130.265 21.5005 131.42 20.9482 133.242 20.9482C135.051 20.9482 136.207 21.5005 136.213 22.3828C136.207 23.2778 135.051 23.8174 133.242 23.8174C131.42 23.8174 130.265 23.2778 130.271 22.3828ZM152.234 19.7422H151.257V24.3379H149.632V19.9961H148.692V30.4443H149.632V25.1885H151.257V31.0283H152.234V19.7422ZM143.17 28.1084H143.868C145.112 28.1084 146.407 28.0259 147.981 27.7402L147.854 26.8516C146.483 27.1309 145.277 27.2134 144.16 27.2197V21.126H143.17V28.1084ZM164.117 25.3281H161.565V23.7349C162.454 23.3794 162.956 22.8081 162.962 22.0527C162.956 20.7261 161.432 19.9644 158.976 19.958C156.5 19.9644 154.977 20.7261 154.977 22.0527C154.977 22.8145 155.484 23.3857 156.386 23.7349V25.3281H153.834V26.1533H164.117V25.3281ZM155.078 29.0098C155.072 30.2983 156.525 31.0029 158.976 31.0029C161.394 31.0029 162.848 30.2983 162.86 29.0098C162.848 27.7212 161.394 27.0103 158.976 27.0166C156.525 27.0103 155.072 27.7212 155.078 29.0098ZM156.005 22.0527C155.999 21.2402 157.128 20.7451 158.976 20.7451C160.804 20.7451 161.94 21.2402 161.946 22.0527C161.94 22.8779 160.804 23.354 158.976 23.3604C157.128 23.354 155.999 22.8779 156.005 22.0527ZM156.094 29.0098C156.081 28.2417 157.167 27.791 158.976 27.7783C160.766 27.791 161.851 28.2417 161.857 29.0098C161.851 29.7778 160.766 30.2349 158.976 30.2285C157.167 30.2349 156.081 29.7778 156.094 29.0098ZM157.376 25.3281V24.0078C157.852 24.0903 158.385 24.1348 158.976 24.1348C159.566 24.1348 160.099 24.0903 160.575 24.0015V25.3281H157.376ZM174.375 19.7422H173.372V31.0537H174.375V19.7422ZM165.488 24.5537C165.495 26.9595 166.688 28.4829 168.37 28.4766C170.046 28.4829 171.258 26.9595 171.252 24.5537C171.258 22.1543 170.046 20.6245 168.37 20.6182C166.688 20.6245 165.495 22.1543 165.488 24.5537ZM166.453 24.5537C166.453 22.7192 167.24 21.5132 168.37 21.5068C169.506 21.5132 170.287 22.7192 170.287 24.5537C170.287 26.3882 169.506 27.5942 168.37 27.5879C167.24 27.5942 166.453 26.3882 166.453 24.5537ZM183.389 27.3213V26.6992H182.424V27.3213C182.411 28.4004 181.554 29.6064 180.126 30.1396L180.634 30.876C181.713 30.4697 182.487 29.6826 182.894 28.7749C183.23 29.7207 183.928 30.5459 185.026 30.9648C186.067 30.5269 186.759 29.6572 187.108 28.7432C187.502 29.689 188.289 30.4761 189.419 30.876L189.914 30.1396C188.467 29.6382 187.61 28.4829 187.616 27.3213V26.6992H186.639V27.3213C186.645 28.1909 186.074 29.3208 184.995 29.9873C183.922 29.3779 183.382 28.3179 183.389 27.3213ZM179.834 23.0557C179.828 24.6045 181.078 25.6709 182.792 25.6709C184.506 25.6709 185.744 24.6045 185.75 23.0557C185.744 21.4814 184.506 20.4087 182.792 20.415C181.078 20.4087 179.828 21.4814 179.834 23.0557ZM180.812 23.0557C180.799 22.002 181.63 21.2529 182.792 21.2656C183.941 21.2529 184.772 22.002 184.772 23.0557C184.772 24.103 183.941 24.8394 182.792 24.8457C181.63 24.8394 180.799 24.103 180.812 23.0557ZM187.896 26.2041H188.886V19.7549H187.896V26.2041ZM199.537 19.7422H198.547V31.0537H199.537V25.0488H201.429V24.2109H199.537V19.7422ZM191.298 28.2227H192.187C194.332 28.2227 195.811 28.1592 197.582 27.8418L197.455 26.9785C195.773 27.2896 194.332 27.3784 192.288 27.3848V21.6719H196.566V20.8467H191.298V28.2227ZM207.751 20.7324H202.571V26.001H207.751V24.9854H210.392V27.9941H211.395V19.7549H210.392V21.7354H207.751V20.7324ZM203.562 25.2012V21.5576H206.773V25.2012H203.562ZM204.095 30.7871H211.648V29.9492H205.098V27.2578H204.095V30.7871ZM207.751 24.1602V22.5732H210.392V24.1602H207.751ZM225.359 19.7422H224.369V25.4932H225.359V23.0303H227.061V22.1924H225.359V19.7422ZM216.752 22.6621C216.746 24.1475 217.99 25.1694 219.685 25.1758C221.386 25.1694 222.617 24.1475 222.617 22.6621C222.617 21.1831 221.386 20.1675 219.685 20.1611C217.99 20.1675 216.746 21.1831 216.752 22.6621ZM217.729 22.6621C217.723 21.6846 218.555 20.9863 219.685 20.999C220.808 20.9863 221.646 21.6846 221.64 22.6621C221.646 23.6523 220.808 24.3633 219.685 24.3633C218.555 24.3633 217.723 23.6523 217.729 22.6621ZM218.161 26.8262H224.369V28.0195H218.187V30.876H225.778V30.0762H219.164V28.7812H225.359V26.0264H218.161V26.8262ZM237.115 19.7422H236.125V22.3193H233.865V23.1572H236.125V25.4043H233.776V26.2422H236.125V31.0537H237.115V19.7422ZM228.165 21.5957H232.151V23.9697H228.203V28.4131H229.041C230.844 28.4131 232.291 28.3496 234.094 28.0703L234.005 27.2324C232.291 27.499 230.888 27.5625 229.193 27.5625V24.7822H233.129V20.7705H228.165V21.5957ZM244.707 21.3418V21.2656H248.312V20.4531H239.972V21.2656H243.59V21.3418C243.583 22.8525 241.578 24.1348 239.616 24.4268L240.01 25.2139C241.743 24.9155 243.463 23.9761 244.148 22.6177C244.834 23.9761 246.554 24.9155 248.312 25.2139L248.681 24.4268C246.713 24.1348 244.701 22.8525 244.707 21.3418ZM239.007 27.0039H243.641V31.0283H244.618V27.0039H249.29V26.1787H239.007V27.0039ZM253.594 22.9541V20.8086H252.629V22.9922C252.629 24.9282 251.677 26.9277 250.115 27.8418L250.75 28.5908C251.88 27.9053 252.718 26.6104 253.13 25.106C253.524 26.4834 254.305 27.6895 255.396 28.3496L255.968 27.5752C254.47 26.6865 253.594 24.7505 253.594 22.9541ZM254.724 24.6426H256.641V30.457H257.58V19.9834H256.641V23.792H254.724V24.6426ZM258.951 31.0283H259.916V19.7422H258.951V31.0283ZM271.812 28.7432H269.247V25.6709C270.18 25.1694 270.745 24.3696 270.745 23.3604C270.745 21.6147 269.031 20.4658 266.619 20.4531C264.207 20.4658 262.493 21.6147 262.493 23.3604C262.493 24.3887 263.077 25.2012 264.042 25.7026V28.7432H261.478V29.5811H271.812V28.7432ZM263.458 23.3604C263.452 22.0972 264.766 21.2656 266.619 21.2783C268.454 21.2656 269.78 22.0972 269.78 23.3604C269.78 24.6235 268.454 25.4678 266.619 25.4678C264.766 25.4678 263.452 24.6235 263.458 23.3604ZM265.02 28.7432V26.0645C265.502 26.1914 266.042 26.2549 266.619 26.2549C267.209 26.2549 267.755 26.1851 268.244 26.0581V28.7432H265.02Z" fill="white"/>
<path d="M267 50L263 46L271 46L267 50Z" fill="#1A1E27"/>
</g>
<defs>
<filter id="filter0_dd_2785_70363" x="0" y="0" width="293" height="58" filterUnits="userSpaceOnUse" color-interpolation-filters="sRGB">
<feFlood flood-opacity="0" result="BackgroundImageFix"/>
<feColorMatrix in="SourceAlpha" type="matrix" values="0 0 0 0 0 0 0 0 0 0 0 0 0 0 0 0 0 0 127 0" result="hardAlpha"/>
<feOffset dy="2"/>
<feGaussianBlur stdDeviation="3"/>
<feColorMatrix type="matrix" values="0 0 0 0 0 0 0 0 0 0 0 0 0 0 0 0 0 0 0.15 0"/>
<feBlend mode="normal" in2="BackgroundImageFix" result="effect1_dropShadow_2785_70363"/>
<feColorMatrix in="SourceAlpha" type="matrix" values="0 0 0 0 0 0 0 0 0 0 0 0 0 0 0 0 0 0 127 0" result="hardAlpha"/>
<feOffset/>
<feGaussianBlur stdDeviation="0.5"/>
<feColorMatrix type="matrix" values="0 0 0 0 0 0 0 0 0 0 0 0 0 0 0 0 0 0 0.08 0"/>
<feBlend mode="normal" in2="effect1_dropShadow_2785_70363" result="effect2_dropShadow_2785_70363"/>
<feBlend mode="normal" in="SourceGraphic" in2="effect2_dropShadow_2785_70363" result="shape"/>
</filter>
</defs>
</svg>
