<svg width="44" height="44" viewBox="0 0 44 44" fill="none" xmlns="http://www.w3.org/2000/svg">
<circle cx="22" cy="22" r="22" fill="#E1E2E4"/>
<path fill-rule="evenodd" clip-rule="evenodd" d="M8.55469 34.4641C10.8186 29.2857 15.9865 25.667 21.9997 25.667C28.0129 25.667 33.1808 29.2857 35.4447 34.4641C32.0964 38.0743 27.3119 40.3337 21.9997 40.3337C16.6875 40.3337 11.903 38.0743 8.55469 34.4641Z" fill="white"/>
<path d="M25.7102 10.689C25.6856 11.2698 25.4807 11.8694 25.0976 12.4636C24.5557 13.3039 23.8078 13.9014 23.2884 14.1803C22.8221 14.4308 22.2692 14.5906 21.7354 14.5906C21.1001 14.5906 20.4918 14.3642 20.0891 13.7949C19.5354 13.0123 19.693 11.9996 20.4724 11.3322C20.5322 11.2811 20.6004 11.2492 20.671 11.2321C20.8455 11.1899 21.0355 11.248 21.1569 11.4019C21.3274 11.618 21.2975 11.9373 21.09 12.115C21.0274 12.1685 20.4899 12.6538 20.8719 13.1938C21.0417 13.4338 21.3035 13.5406 21.5906 13.5659C22.0262 13.6043 22.5202 13.453 22.8428 13.2797C22.9631 13.2151 23.1043 13.1242 23.2549 13.01C24.2009 12.4131 25.2269 11.2833 24.6967 10.176C24.2872 9.3209 23.0663 9.05007 21.8635 9.21107C17.1473 9.73338 14.667 13.4631 14.667 16.7687C14.667 20.6705 17.9503 23.8337 22.0003 23.8337C26.0504 23.8337 29.3337 20.6706 29.3337 16.7687C29.3337 14.1173 27.9826 11.8181 25.7102 10.689Z" fill="white"/>
<path fill-rule="evenodd" clip-rule="evenodd" d="M27.6522 31.7545C27.8541 31.5661 28.1705 31.5772 28.3588 31.7791C28.9677 32.432 29.8095 33.6247 30.4131 35.1266C31.0176 36.631 31.3954 38.4772 31.0281 40.4184C30.9768 40.6897 30.7152 40.8681 30.4439 40.8167C30.1726 40.7654 29.9942 40.5038 30.0456 40.2325C30.3676 38.5305 30.041 36.8826 29.4852 35.4995C28.9283 34.1137 28.1537 33.0254 27.6275 32.4611C27.4392 32.2592 27.4502 31.9428 27.6522 31.7545Z" fill="#E1E2E4"/>
<path fill-rule="evenodd" clip-rule="evenodd" d="M16.3478 31.7545C16.1459 31.5661 15.8295 31.5772 15.6412 31.7791C15.0323 32.432 14.1905 33.6247 13.5869 35.1266C12.9824 36.631 12.6046 38.4772 12.9719 40.4184C13.0232 40.6897 13.2848 40.8681 13.5561 40.8167C13.8274 40.7654 14.0058 40.5038 13.9544 40.2325C13.6324 38.5305 13.959 36.8826 14.5148 35.4995C15.0717 34.1137 15.8463 33.0254 16.3725 32.4611C16.5608 32.2592 16.5498 31.9428 16.3478 31.7545Z" fill="#E1E2E4"/>
</svg>
