<svg width="24" height="24" viewBox="0 0 24 24" fill="none" xmlns="http://www.w3.org/2000/svg">
<path fill-rule="evenodd" clip-rule="evenodd" d="M2.07588 11.6172C2.02698 11.7351 2 11.8644 2 11.9999C2 12.275 2.11106 12.5241 2.29078 12.7049C2.29219 12.7063 2.2936 12.7078 2.29502 12.7092C2.3904 12.804 2.50015 12.8756 2.61722 12.9241C2.73426 12.9726 2.86251 12.9995 2.99701 12.9999C2.998 12.9999 2.999 12.9999 3 12.9999L3.0005 12.9999L21 12.9999C21.5523 12.9999 22 12.5521 22 11.9999C22 11.4476 21.5523 10.9999 21 10.9999L5.41421 10.9999L10.9071 5.507C11.2976 5.11647 11.2976 4.4833 10.9071 4.09278C10.5165 3.70226 9.88338 3.70226 9.49286 4.09279L2.29354 11.2922C2.29114 11.2946 2.28876 11.297 2.28639 11.2994C2.19374 11.3937 2.12357 11.5019 2.07588 11.6172ZM5.05339 14.0535C5.44392 13.663 6.07708 13.663 6.4676 14.0535L10.9072 18.4931C11.2977 18.8836 11.2977 19.5168 10.9072 19.9073C10.5167 20.2978 9.88351 20.2978 9.49299 19.9073L5.05339 15.4677C4.66287 15.0772 4.66287 14.444 5.05339 14.0535Z" fill="#383E4A"/>
</svg>
