<svg width="14" height="14" viewBox="0 0 14 14" fill="none" xmlns="http://www.w3.org/2000/svg">
<path d="M11.9997 9.48692V10.9923C12.0003 11.1321 11.9716 11.2704 11.9155 11.3985C11.8594 11.5265 11.7771 11.6414 11.6739 11.7359C11.5707 11.8304 11.4489 11.9023 11.3163 11.9471C11.1836 11.9919 11.0431 12.0085 10.9036 11.9959C9.3564 11.8281 7.87022 11.3005 6.56445 10.4554C5.34961 9.68496 4.31963 8.65703 3.54767 7.44459C2.69793 6.13549 2.16912 4.64504 2.00408 3.09397C1.99152 2.95521 2.00804 2.81536 2.0526 2.68331C2.09716 2.55127 2.16878 2.42994 2.2629 2.32703C2.35703 2.22413 2.47158 2.14191 2.59929 2.08562C2.72699 2.02932 2.86504 2.00018 3.00465 2.00005H4.51304C4.75705 1.99765 4.99361 2.08389 5.17862 2.24269C5.36364 2.40148 5.48448 2.622 5.51863 2.86315C5.5823 3.34491 5.70037 3.81794 5.87059 4.27321C5.93824 4.45281 5.95288 4.64801 5.91278 4.83567C5.87268 5.02332 5.77952 5.19557 5.64433 5.33201L5.00578 5.9693C5.72154 7.22558 6.76379 8.26576 8.02256 8.9801L8.66112 8.34281C8.79782 8.2079 8.97041 8.11492 9.15844 8.0749C9.34647 8.03488 9.54206 8.04949 9.72202 8.117C10.1782 8.28689 10.6522 8.40473 11.1349 8.46827C11.3791 8.50265 11.6022 8.62543 11.7616 8.81325C11.9211 9.00107 12.0058 9.24083 11.9997 9.48692Z" fill="#9EA1A8" stroke="#9EA1A8" stroke-width="0.5" stroke-linecap="round" stroke-linejoin="round"/>
</svg>
