<svg width="20" height="20" viewBox="0 0 20 20" fill="none" xmlns="http://www.w3.org/2000/svg">
<path d="M11.2783 13.1534C11.5938 13.2993 11.9666 13.1448 12.0848 12.8187L12.5531 11.9087C12.703 11.4953 13.1311 11.2511 13.5645 11.3317L16.8006 11.9654C17.3483 12.131 17.6466 12.7411 17.6466 12.7411C18.2743 13.9043 18.0688 15.1551 18.064 15.1835C17.8327 16.6861 16.6597 17.8404 15.1197 17.8969C10.659 18.0227 6.37229 13.7567 6.37229 13.7567C1.80303 9.1212 1.90006 5.19188 1.90006 5.19188C1.90006 3.65519 3.01373 2.44396 4.51117 2.15819C4.53946 2.15238 5.78548 1.9016 6.97427 2.48429C6.97427 2.48429 7.59668 2.75907 7.78281 3.29884L8.53679 6.50021C8.63354 6.92901 8.40452 7.36468 7.99569 7.52913L7.10093 8.02927C6.77839 8.15907 6.63734 8.53627 6.79517 8.84529C6.79524 8.84536 8.10212 12.0268 11.2783 13.1534Z" fill="#C6C8CD"/>
</svg>
