<svg width="28" height="28" viewBox="0 0 28 28" fill="none" xmlns="http://www.w3.org/2000/svg">
<rect width="28" height="28" rx="14" fill="#000"/>
<path d="M21 17.7778C21 18.1019 20.8659 18.4128 20.6272 18.642C20.3885 18.8712 20.0648 19 19.7273 19H8.27273C7.93518 19 7.61146 18.8712 7.37277 18.642C7.13409 18.4128 7 18.1019 7 17.7778V11.0556C7 10.7314 7.13409 10.4205 7.37277 10.1913C7.61146 9.9621 7.93518 9.83333 8.27273 9.83333H10.8182L12.0909 8H15.9091L17.1818 9.83333H19.7273C20.0648 9.83333 20.3885 9.9621 20.6272 10.1913C20.8659 10.4205 21 10.7314 21 11.0556V17.7778Z" stroke="white" stroke-width="1.4" stroke-linecap="round" stroke-linejoin="round"/>
<path d="M14 16.5C15.3807 16.5 16.5 15.3807 16.5 14C16.5 12.6193 15.3807 11.5 14 11.5C12.6193 11.5 11.5 12.6193 11.5 14C11.5 15.3807 12.6193 16.5 14 16.5Z" stroke="white" stroke-width="1.4" stroke-linecap="round" stroke-linejoin="round"/>
</svg>
