<svg width="20" height="20" viewBox="0 0 20 20" fill="none" xmlns="http://www.w3.org/2000/svg">
<path fill-rule="evenodd" clip-rule="evenodd" d="M18.5 9.18678C18.5 12.1276 16.4108 14.6559 13.4189 15.7686C13.2557 15.8339 13.0865 15.8991 12.9122 15.964C12.7006 16.0427 12.4814 16.121 12.2561 16.1986C10.5199 16.7969 8.42319 17.3549 6.67457 17.7597L6.60029 17.7768C6.45691 17.8099 6.31596 17.8418 6.17785 17.8727C6.00155 17.9121 5.82987 17.9496 5.66363 17.9852C5.15078 18.0951 4.78749 17.5233 5.09255 17.0966L5.38553 16.6869L5.64471 16.3244L5.68434 16.269L5.88632 15.9865L8.01038 13.0439C8.26897 12.6857 8.18818 12.1856 7.82993 11.927C7.47168 11.6684 6.97163 11.7492 6.71304 12.1075L4.74403 14.8353C2.76843 13.5193 1.5 11.4783 1.5 9.18678C1.5 5.21763 5.30558 2 10 2C14.6944 2 18.5 5.21763 18.5 9.18678Z" fill="#C6C8CD"/>
</svg>
