<svg width="20" height="20" viewBox="0 0 20 20" fill="none" xmlns="http://www.w3.org/2000/svg">
<path d="M4.31569 8.83432C4.00327 8.5219 3.49673 8.5219 3.18431 8.83432C2.8719 9.14674 2.8719 9.65327 3.18431 9.96569L4.31569 8.83432ZM8.55 14.2L7.98431 14.7657C8.13434 14.9157 8.33783 15 8.55 15C8.76217 15 8.96566 14.9157 9.11569 14.7657L8.55 14.2ZM16.8157 7.06569C17.1281 6.75327 17.1281 6.24673 16.8157 5.93431C16.5033 5.6219 15.9967 5.6219 15.6843 5.93431L16.8157 7.06569ZM3.18431 9.96569L7.98431 14.7657L9.11569 13.6343L4.31569 8.83432L3.18431 9.96569ZM9.11569 14.7657L16.8157 7.06569L15.6843 5.93431L7.98431 13.6343L9.11569 14.7657Z" fill="#000"/>
</svg>
