<svg width="20" height="20" viewBox="0 0 20 20" fill="none" xmlns="http://www.w3.org/2000/svg">
<path fill-rule="evenodd" clip-rule="evenodd" d="M10 18.5C14.6944 18.5 18.5 14.6944 18.5 10C18.5 5.30558 14.6944 1.5 10 1.5C5.30558 1.5 1.5 5.30558 1.5 10C1.5 14.6944 5.30558 18.5 10 18.5ZM13.2983 13.2983C13.0293 13.5672 12.5932 13.5672 12.3242 13.2983L10 10.9741L7.6758 13.2983C7.40683 13.5672 6.97073 13.5672 6.70176 13.2983C6.43278 13.0293 6.43278 12.5932 6.70176 12.3242L9.02597 10L6.70173 7.67578C6.43276 7.4068 6.43276 6.97071 6.70173 6.70173C6.97071 6.43276 7.4068 6.43276 7.67578 6.70173L10 9.02597L12.3242 6.70173C12.5932 6.43276 13.0293 6.43276 13.2983 6.70173C13.5673 6.97071 13.5673 7.4068 13.2983 7.67578L10.9741 10L13.2983 12.3242C13.5672 12.5932 13.5672 13.0293 13.2983 13.2983Z" fill="#383E4A"/>
</svg>
