<svg width="20" height="20" viewBox="0 0 20 20" fill="none" xmlns="http://www.w3.org/2000/svg">
<mask id="path-1-inside-1_4942_47364" fill="white">
<path fill-rule="evenodd" clip-rule="evenodd" d="M18.5 10C18.5 14.6944 14.6944 18.5 10 18.5C5.30558 18.5 1.5 14.6944 1.5 10C1.5 5.30558 5.30558 1.5 10 1.5C14.6944 1.5 18.5 5.30558 18.5 10ZM10.7 7.00005C10.7 6.61345 10.3866 6.30005 10 6.30005C9.61345 6.30005 9.30005 6.61345 9.30005 7.00005V10.3334C9.30005 10.616 9.46996 10.8708 9.73082 10.9795L12.7308 12.2295C13.0877 12.3782 13.4975 12.2095 13.6462 11.8526C13.7949 11.4958 13.6261 11.0859 13.2693 10.9372L10.7 9.86672V7.00005Z"/>
</mask>
<path fill-rule="evenodd" clip-rule="evenodd" d="M18.5 10C18.5 14.6944 14.6944 18.5 10 18.5C5.30558 18.5 1.5 14.6944 1.5 10C1.5 5.30558 5.30558 1.5 10 1.5C14.6944 1.5 18.5 5.30558 18.5 10ZM10.7 7.00005C10.7 6.61345 10.3866 6.30005 10 6.30005C9.61345 6.30005 9.30005 6.61345 9.30005 7.00005V10.3334C9.30005 10.616 9.46996 10.8708 9.73082 10.9795L12.7308 12.2295C13.0877 12.3782 13.4975 12.2095 13.6462 11.8526C13.7949 11.4958 13.6261 11.0859 13.2693 10.9372L10.7 9.86672V7.00005Z" fill="#C6C8CD"/>
<path d="M9.73082 10.9795L10.3462 9.50261L10.3462 9.50261L9.73082 10.9795ZM13.6462 11.8526L12.1693 11.2372L12.1693 11.2372L13.6462 11.8526ZM13.2693 10.9372L12.6539 12.4142L12.6539 12.4142L13.2693 10.9372ZM10.7 9.86672H9.10005C9.10005 10.5126 9.48843 11.0952 10.0847 11.3436L10.7 9.86672ZM10 20.1C15.5781 20.1 20.1 15.5781 20.1 10H16.9C16.9 13.8108 13.8108 16.9 10 16.9V20.1ZM-0.1 10C-0.1 15.5781 4.42192 20.1 10 20.1V16.9C6.18924 16.9 3.1 13.8108 3.1 10H-0.1ZM10 -0.1C4.42192 -0.1 -0.1 4.42192 -0.1 10H3.1C3.1 6.18924 6.18924 3.1 10 3.1V-0.1ZM20.1 10C20.1 4.42192 15.5781 -0.1 10 -0.1V3.1C13.8108 3.1 16.9 6.18924 16.9 10H20.1ZM10 7.90005C9.50299 7.90005 9.10005 7.4971 9.10005 7.00005H12.3C12.3 5.72979 11.2703 4.70005 10 4.70005V7.90005ZM10.9 7.00005C10.9 7.4971 10.4971 7.90005 10 7.90005V4.70005C8.72979 4.70005 7.70005 5.72979 7.70005 7.00005H10.9ZM10.9 10.3334V7.00005H7.70005V10.3334H10.9ZM10.3462 9.50261C10.6816 9.64236 10.9 9.97005 10.9 10.3334H7.70005C7.70005 11.2619 8.25834 12.0993 9.11543 12.4565L10.3462 9.50261ZM13.3462 10.7526L10.3462 9.50261L9.11543 12.4565L12.1154 13.7065L13.3462 10.7526ZM12.1693 11.2372C12.3605 10.7784 12.8874 10.5614 13.3462 10.7526L12.1154 13.7065C13.288 14.195 14.6346 13.6405 15.1231 12.468L12.1693 11.2372ZM12.6539 12.4142C12.1951 12.223 11.9781 11.696 12.1693 11.2372L15.1231 12.468C15.6117 11.2955 15.0572 9.94886 13.8847 9.4603L12.6539 12.4142ZM10.0847 11.3436L12.6539 12.4142L13.8847 9.46031L11.3154 8.38979L10.0847 11.3436ZM9.10005 7.00005V9.86672H12.3V7.00005H9.10005Z" fill="#C6C8CD" mask="url(#path-1-inside-1_4942_47364)"/>
</svg>
