<svg width="25" height="24" viewBox="0 0 25 24" fill="none" xmlns="http://www.w3.org/2000/svg">
<path fill-rule="evenodd" clip-rule="evenodd" d="M14.875 17C10.4567 17 6.875 13.4183 6.875 9C6.875 4.58172 10.4567 1 14.875 1C19.2933 1 22.875 4.58172 22.875 9C22.875 11.2091 21.9796 13.2091 20.5319 14.6569L22.5336 16.6586C22.6596 16.7846 22.5703 17 22.3922 17H14.875Z" fill="#ECECEE"/>
<path fill-rule="evenodd" clip-rule="evenodd" d="M9.875 22C14.2933 22 17.875 18.4183 17.875 14C17.875 9.58172 14.2933 6 9.875 6C5.45672 6 1.875 9.58172 1.875 14C1.875 16.2091 2.77043 18.2091 4.21815 19.6569L2.21642 21.6586C2.09043 21.7846 2.17966 22 2.35784 22H9.875Z" fill="#E1E2E4"/>
</svg>
