<svg width="25" height="24" viewBox="0 0 25 24" fill="none" xmlns="http://www.w3.org/2000/svg">
<path d="M7.675 3H19.825V21H7.675C7.07826 21 6.50596 20.7629 6.08401 20.341C5.66205 19.919 5.425 19.3467 5.425 18.75V5.25C5.425 4.65326 5.66205 4.08096 6.08401 3.65901C6.50596 3.23705 7.07826 3 7.675 3Z" fill="#E1E2E4" stroke="#E1E2E4" stroke-width="2" stroke-linecap="round" stroke-linejoin="round"/>
<path d="M5.425 18.75C5.425 17.5074 6.43236 16.5 7.675 16.5H19.8221C19.8237 16.5 19.825 16.5013 19.825 16.5029V20.9971C19.825 20.9987 19.8237 21 19.8221 21H7.675C6.43236 21 5.425 19.9926 5.425 18.75Z" fill="white" stroke="#E1E2E4" stroke-width="2"/>
</svg>
