<svg width="24" height="24" viewBox="0 0 24 24" fill="none" xmlns="http://www.w3.org/2000/svg">
<g clip-path="url(#clip0_1832_42238)">
<path d="M19.0657 6.06569C19.3781 5.75327 19.3781 5.24673 19.0657 4.93431C18.7533 4.6219 18.2467 4.6219 17.9343 4.93431L19.0657 6.06569ZM4.93431 17.9343C4.6219 18.2467 4.6219 18.7533 4.93431 19.0657C5.24673 19.3781 5.75327 19.3781 6.06569 19.0657L4.93431 17.9343ZM17.9343 4.93431L4.93431 17.9343L6.06569 19.0657L19.0657 6.06569L17.9343 4.93431Z" fill="#383E4A"/>
<path d="M17.9343 19.0657C18.2467 19.3781 18.7533 19.3781 19.0657 19.0657C19.3781 18.7533 19.3781 18.2467 19.0657 17.9343L17.9343 19.0657ZM6.06569 4.93431C5.75327 4.62189 5.24673 4.62189 4.93432 4.93431C4.6219 5.24673 4.6219 5.75327 4.93432 6.06569L6.06569 4.93431ZM19.0657 17.9343L6.06569 4.93431L4.93432 6.06569L17.9343 19.0657L19.0657 17.9343Z" fill="#383E4A"/>
</g>
<defs>
<clipPath id="clip0_1832_42238">
<rect width="24" height="24" fill="white"/>
</clipPath>
</defs>
</svg>
