<svg width="24" height="24" viewBox="0 0 24 24" fill="none" xmlns="http://www.w3.org/2000/svg">
<path fill-rule="evenodd" clip-rule="evenodd" d="M2.6001 16.8943V20.7043C2.6001 21.0885 2.91157 21.4 3.29578 21.4H7.08228C7.36474 21.4 7.63565 21.2879 7.83547 21.0882L17.7674 11.1649L14.2351 7.63561C13.9593 7.36008 13.9594 6.91336 14.2351 6.63783C14.5109 6.36231 14.958 6.36232 15.2338 6.63785L18.766 10.1672L20.5801 8.3547C21.4968 7.43878 21.6639 6.01294 20.9839 4.90984C20.5127 4.14559 19.8707 3.50024 19.109 3.0249C18.0041 2.33536 16.5686 2.4983 15.6473 3.41885L2.9111 16.1439C2.71198 16.3429 2.6001 16.6128 2.6001 16.8943Z" fill="white"/>
</svg>
