<svg width="20" height="20" viewBox="0 0 20 20" fill="none" xmlns="http://www.w3.org/2000/svg">
<path d="M10 6.85658L10 10.2852" stroke="white" stroke-width="1.6" stroke-linecap="round" stroke-linejoin="round"/>
<path d="M10 13.1426L9.99333 13.1426" stroke="white" stroke-width="1.6" stroke-linecap="round" stroke-linejoin="round"/>
<mask id="path-3-inside-1_4942_47580" fill="white">
<path fill-rule="evenodd" clip-rule="evenodd" d="M10 1.5C5.30558 1.5 1.5 5.30558 1.5 10C1.5 14.6944 5.30558 18.5 10 18.5C14.6944 18.5 18.5 14.6944 18.5 10C18.5 5.30558 14.6944 1.5 10 1.5ZM10 11.0857C9.55822 11.0857 9.20005 10.7275 9.20005 10.2857L9.20005 6.85712C9.20005 6.41529 9.55822 6.05712 10 6.05712C10.4419 6.05712 10.8 6.41529 10.8 6.85712L10.8 10.2857C10.8 10.7275 10.4419 11.0857 10 11.0857ZM10 13.9429C10.4419 13.9429 10.8 13.5847 10.8 13.1429C10.8 12.701 10.4419 12.3429 10 12.3429L9.99338 12.3429C9.55155 12.3429 9.19338 12.701 9.19338 13.1429C9.19338 13.5847 9.55155 13.9429 9.99338 13.9429L10 13.9429Z"/>
</mask>
<path fill-rule="evenodd" clip-rule="evenodd" d="M10 1.5C5.30558 1.5 1.5 5.30558 1.5 10C1.5 14.6944 5.30558 18.5 10 18.5C14.6944 18.5 18.5 14.6944 18.5 10C18.5 5.30558 14.6944 1.5 10 1.5ZM10 11.0857C9.55822 11.0857 9.20005 10.7275 9.20005 10.2857L9.20005 6.85712C9.20005 6.41529 9.55822 6.05712 10 6.05712C10.4419 6.05712 10.8 6.41529 10.8 6.85712L10.8 10.2857C10.8 10.7275 10.4419 11.0857 10 11.0857ZM10 13.9429C10.4419 13.9429 10.8 13.5847 10.8 13.1429C10.8 12.701 10.4419 12.3429 10 12.3429L9.99338 12.3429C9.55155 12.3429 9.19338 12.701 9.19338 13.1429C9.19338 13.5847 9.55155 13.9429 9.99338 13.9429L10 13.9429Z" fill="#C6C8CD"/>
<path d="M9.20005 10.2857L7.60005 10.2857L9.20005 10.2857ZM9.20005 6.85712L10.8 6.85712L9.20005 6.85712ZM10.8 6.85712L12.4 6.85712L10.8 6.85712ZM10.8 10.2857L9.20005 10.2857L10.8 10.2857ZM10 13.9429L10 15.5429L10 13.9429ZM9.99338 13.9429L9.99338 12.3429L9.99338 13.9429ZM3.1 10C3.1 6.18924 6.18923 3.1 10 3.1L10 -0.0999996C4.42192 -0.0999992 -0.100002 4.42193 -0.100001 10L3.1 10ZM10 16.9C6.18923 16.9 3.1 13.8108 3.1 10L-0.100001 10C-0.100001 15.5781 4.42192 20.1 10 20.1L10 16.9ZM16.9 10C16.9 13.8108 13.8108 16.9 10 16.9L10 20.1C15.5781 20.1 20.1 15.5781 20.1 10L16.9 10ZM10 3.1C13.8108 3.1 16.9 6.18923 16.9 10L20.1 10C20.1 4.42192 15.5781 -0.1 10 -0.0999996L10 3.1ZM7.60005 10.2857C7.60005 11.6112 8.67457 12.6857 10 12.6857L10 9.48569C10.4419 9.48569 10.8 9.84387 10.8 10.2857L7.60005 10.2857ZM7.60005 6.85712L7.60005 10.2857L10.8 10.2857L10.8 6.85712L7.60005 6.85712ZM10 4.45712C8.67457 4.45712 7.60005 5.53164 7.60005 6.85712L10.8 6.85712C10.8 7.29895 10.4419 7.65712 10 7.65712L10 4.45712ZM12.4 6.85712C12.4 5.53164 11.3255 4.45712 10 4.45712L10 7.65712C9.55822 7.65712 9.20005 7.29895 9.20005 6.85712L12.4 6.85712ZM12.4 10.2857L12.4 6.85712L9.20005 6.85712L9.20005 10.2857L12.4 10.2857ZM10 12.6857C11.3255 12.6857 12.4 11.6112 12.4 10.2857L9.20005 10.2857C9.20005 9.84387 9.55822 9.48569 10 9.48569L10 12.6857ZM9.20005 13.1429C9.20005 12.701 9.55822 12.3429 10 12.3429L10 15.5429C11.3255 15.5429 12.4 14.4684 12.4 13.1429L9.20005 13.1429ZM10 13.9429C9.55822 13.9429 9.20005 13.5847 9.20005 13.1429L12.4 13.1429C12.4 11.8174 11.3255 10.7429 10 10.7429L10 13.9429ZM9.99338 13.9429L10 13.9429L10 10.7429L9.99338 10.7429L9.99338 13.9429ZM10.7934 13.1429C10.7934 13.5847 10.4352 13.9429 9.99338 13.9429L9.99338 10.7429C8.6679 10.7429 7.59338 11.8174 7.59338 13.1429L10.7934 13.1429ZM9.99338 12.3429C10.4352 12.3429 10.7934 12.701 10.7934 13.1429L7.59338 13.1429C7.59338 14.4684 8.6679 15.5429 9.99338 15.5429L9.99338 12.3429ZM10 12.3429L9.99338 12.3429L9.99338 15.5429L10 15.5429L10 12.3429Z" fill="#C6C8CD" mask="url(#path-3-inside-1_4942_47580)"/>
</svg>
