<svg width="25" height="24" viewBox="0 0 25 24" fill="none" xmlns="http://www.w3.org/2000/svg">
<path d="M20.375 10.3458C20.375 16.1368 12.875 21.1004 12.875 21.1004C12.875 21.1004 5.375 16.1368 5.375 10.3458C5.375 8.37119 6.16518 6.47741 7.5717 5.08111C8.97822 3.68482 10.8859 2.90039 12.875 2.90039C14.8641 2.90039 16.7718 3.68482 18.1783 5.08111C19.5848 6.47741 20.375 8.37119 20.375 10.3458Z" fill="#FF6B00" stroke="#FF6B00" stroke-width="2" stroke-linecap="round" stroke-linejoin="round"/>
<path d="M12.875 12.8279C14.2557 12.8279 15.375 11.7167 15.375 10.3461C15.375 8.97541 14.2557 7.86426 12.875 7.86426C11.4943 7.86426 10.375 8.97541 10.375 10.3461C10.375 11.7167 11.4943 12.8279 12.875 12.8279Z" fill="white" stroke="white" stroke-width="2" stroke-linecap="round" stroke-linejoin="round"/>
</svg>
