<svg width="31" height="30" viewBox="0 0 31 30" fill="none" xmlns="http://www.w3.org/2000/svg">
<path d="M25.316 5.35655C24.7296 4.76797 24.0333 4.30107 23.267 3.98251C22.5006 3.66396 21.6792 3.5 20.8497 3.5C20.0202 3.5 19.1988 3.66396 18.4324 3.98251C17.6661 4.30107 16.9698 4.76797 16.3834 5.35655L15.1663 6.57749L13.9493 5.35655C12.7648 4.16822 11.1582 3.50062 9.48299 3.50062C7.80779 3.50062 6.20121 4.16822 5.01667 5.35655C3.83213 6.54489 3.16666 8.15662 3.16666 9.83718C3.16666 11.5177 3.83213 13.1295 5.01667 14.3178L6.23371 15.5387L15.1663 24.5L24.099 15.5387L25.316 14.3178C25.9027 13.7295 26.3681 13.031 26.6857 12.2622C27.0032 11.4934 27.1667 10.6694 27.1667 9.83718C27.1667 9.00499 27.0032 8.18096 26.6857 7.41216C26.3681 6.64336 25.9027 5.94486 25.316 5.35655Z" fill="#FF6B00"/>
</svg>
