<svg width="20" height="20" viewBox="0 0 20 20" fill="none" xmlns="http://www.w3.org/2000/svg">
<path fill-rule="evenodd" clip-rule="evenodd" d="M16.5 8.65904C16.5 8.36508 16.3707 8.08601 16.1464 7.896L10.6464 3.23697C10.2734 2.92101 9.72663 2.92101 9.35364 3.23697L3.85363 7.89605C3.62934 8.08605 3.5 8.36512 3.5 8.65908V16.0001C3.5 16.5524 3.94772 17.0001 4.5 17.0001L7.08814 17.0001C7.64042 17.0001 8.08813 16.5524 8.08813 16.0001V11.9765C8.08813 11.4242 8.53585 10.9765 9.08813 10.9765H10.9117C11.4639 10.9765 11.9117 11.4242 11.9117 11.9765V16.0001C11.9117 16.5524 12.3594 17.0001 12.9117 17.0001L15.5 17.0001C16.0523 17.0001 16.5 16.5524 16.5 16.0001V8.65904Z" fill="#5D626D"/>
</svg>
