<svg width="20" height="20" viewBox="0 0 20 20" fill="none" xmlns="http://www.w3.org/2000/svg">
<path fill-rule="evenodd" clip-rule="evenodd" d="M9.99652 18.1576C9.53433 18.8602 9.53412 18.86 9.53389 18.8599L9.53329 18.8595L9.53165 18.8584L9.52659 18.855L9.50947 18.8435C9.49501 18.8338 9.47449 18.8198 9.44833 18.8019C9.396 18.7659 9.32104 18.7136 9.22667 18.646C9.03802 18.5107 8.77131 18.3136 8.4525 18.0616C7.81625 17.5587 6.9656 16.8319 6.11201 15.9375C4.4405 14.1861 2.6001 11.629 2.6001 8.75461C2.6001 6.80131 3.38188 4.9298 4.7706 3.55131C6.15902 2.1731 8.0403 1.40039 10.0001 1.40039C11.9599 1.40039 13.8412 2.1731 15.2296 3.55131C16.6183 4.9298 17.4001 6.80131 17.4001 8.75461C17.4001 11.629 15.5597 14.1861 13.8882 15.9375C13.0346 16.8319 12.1839 17.5587 11.5477 18.0616C11.2289 18.3136 10.9622 18.5107 10.7735 18.646C10.6792 18.7136 10.6042 18.7659 10.5519 18.8019C10.5257 18.8198 10.5052 18.8338 10.4907 18.8435L10.4736 18.855L10.4685 18.8584L10.4669 18.8595L10.4663 18.8599C10.4661 18.86 10.4659 18.8602 10.008 18.1642L10.4659 18.8602C10.1833 19.0471 9.81686 19.0471 9.53433 18.8602L9.99652 18.1576ZM10.0002 11.1545C11.3138 11.1545 12.3788 10.0865 12.3788 8.76897C12.3788 7.45147 11.3138 6.38343 10.0002 6.38343C8.68654 6.38343 7.62161 7.45147 7.62161 8.76897C7.62161 10.0865 8.68654 11.1545 10.0002 11.1545Z" fill="#C6C8CD"/>
</svg>
