<svg width="19" height="18" viewBox="0 0 19 18" fill="none" xmlns="http://www.w3.org/2000/svg">
<path fill-rule="evenodd" clip-rule="evenodd" d="M2.79999 4.6834C2.79999 4.2968 3.11339 3.9834 3.49999 3.9834H15.5C15.8866 3.9834 16.2 4.2968 16.2 4.6834C16.2 5.07 15.8866 5.3834 15.5 5.3834H3.49999C3.11339 5.3834 2.79999 5.07 2.79999 4.6834Z" fill="#383E4A"/>
<path d="M11.8008 4.68555C11.8008 4.9207 11.6102 5.11133 11.375 5.11133C11.1398 5.11133 10.9492 4.9207 10.9492 4.68555C10.9492 4.45039 11.1398 4.25977 11.375 4.25977C11.6102 4.25977 11.8008 4.45039 11.8008 4.68555Z" fill="white"/>
<path fill-rule="evenodd" clip-rule="evenodd" d="M11.375 4.26035C11.1403 4.26035 10.95 4.45063 10.95 4.68535C10.95 4.92007 11.1403 5.11035 11.375 5.11035C11.6097 5.11035 11.8 4.92007 11.8 4.68535C11.8 4.45063 11.6097 4.26035 11.375 4.26035ZM9.54999 4.68535C9.54999 3.67743 10.3671 2.86035 11.375 2.86035C12.3829 2.86035 13.2 3.67743 13.2 4.68535C13.2 5.69327 12.3829 6.51035 11.375 6.51035C10.3671 6.51035 9.54999 5.69327 9.54999 4.68535Z" fill="#383E4A"/>
<path fill-rule="evenodd" clip-rule="evenodd" d="M2.79999 8.9959C2.79999 8.6093 3.11339 8.2959 3.49999 8.2959H15.5C15.8866 8.2959 16.2 8.6093 16.2 8.9959C16.2 9.3825 15.8866 9.6959 15.5 9.6959H3.49999C3.11339 9.6959 2.79999 9.3825 2.79999 8.9959Z" fill="#383E4A"/>
<path d="M8.75 8.99805C8.75 9.61937 8.24632 10.123 7.625 10.123C7.00368 10.123 6.5 9.61937 6.5 8.99805C6.5 8.37673 7.00368 7.87305 7.625 7.87305C8.24632 7.87305 8.75 8.37673 8.75 8.99805Z" fill="white"/>
<path fill-rule="evenodd" clip-rule="evenodd" d="M7.62499 8.57285C7.39027 8.57285 7.19999 8.76313 7.19999 8.99785C7.19999 9.23257 7.39027 9.42285 7.62499 9.42285C7.85971 9.42285 8.04999 9.23257 8.04999 8.99785C8.04999 8.76313 7.85971 8.57285 7.62499 8.57285ZM5.79999 8.99785C5.79999 7.98993 6.61707 7.17285 7.62499 7.17285C8.63291 7.17285 9.44999 7.98993 9.44999 8.99785C9.44999 10.0058 8.63291 10.8229 7.62499 10.8229C6.61707 10.8229 5.79999 10.0058 5.79999 8.99785Z" fill="#383E4A"/>
<path fill-rule="evenodd" clip-rule="evenodd" d="M2.79999 13.3084C2.79999 12.9218 3.11339 12.6084 3.49999 12.6084H15.5C15.8866 12.6084 16.2 12.9218 16.2 13.3084C16.2 13.695 15.8866 14.0084 15.5 14.0084H3.49999C3.11339 14.0084 2.79999 13.695 2.79999 13.3084Z" fill="#383E4A"/>
<path d="M12.5 13.3105C12.5 13.9319 11.9963 14.4355 11.375 14.4355C10.7537 14.4355 10.25 13.9319 10.25 13.3105C10.25 12.6892 10.7537 12.1855 11.375 12.1855C11.9963 12.1855 12.5 12.6892 12.5 13.3105Z" fill="white"/>
<path fill-rule="evenodd" clip-rule="evenodd" d="M11.375 12.8854C11.1403 12.8854 10.95 13.0756 10.95 13.3104C10.95 13.5451 11.1403 13.7354 11.375 13.7354C11.6097 13.7354 11.8 13.5451 11.8 13.3104C11.8 13.0756 11.6097 12.8854 11.375 12.8854ZM9.54999 13.3104C9.54999 12.3024 10.3671 11.4854 11.375 11.4854C12.3829 11.4854 13.2 12.3024 13.2 13.3104C13.2 14.3183 12.3829 15.1354 11.375 15.1354C10.3671 15.1354 9.54999 14.3183 9.54999 13.3104Z" fill="#383E4A"/>
</svg>
