<svg width="18" height="18" viewBox="0 0 18 18" fill="none" xmlns="http://www.w3.org/2000/svg">
<path fill-rule="evenodd" clip-rule="evenodd" d="M9.35577 2.49692C8.55599 2.05531 7.57572 2.63381 7.57572 3.54742V11.6962H5.10621C4.57134 11.6962 4.08322 12.0009 3.84837 12.4815L3.11338 13.9855C2.65886 14.9155 3.33603 16.0002 4.37121 16.0002H13.6303C14.6648 16.0002 15.342 14.917 14.8889 13.987L14.1563 12.483C13.9217 12.0016 13.4332 11.6962 12.8977 11.6962H10.5874C10.2008 11.6962 9.88742 12.0096 9.88742 12.3962C9.88742 12.7828 10.2008 13.0962 10.5874 13.0962H12.8977L13.6303 14.6002L4.37121 14.6002L5.10621 13.0962H7.57572V13.3965C7.57572 13.7831 7.88912 14.0965 8.27572 14.0965C8.66232 14.0965 8.97572 13.7831 8.97572 13.3965V9.38932L13.4991 6.88429C14.3246 6.42717 14.3238 5.24012 13.4978 4.78402L9.35577 2.49692ZM12.5045 5.83478L8.97572 7.78897V3.88632L12.5045 5.83478Z" fill="#383E4A"/>
</svg>
