<svg width="16" height="16" viewBox="0 0 16 16" fill="none" xmlns="http://www.w3.org/2000/svg">
<path fill-rule="evenodd" clip-rule="evenodd" d="M14.3 7.41394C14.3 9.58778 12.7524 11.4567 10.5358 12.2798C10.3332 12.3607 10.118 12.4414 9.89332 12.5212C9.692 12.5927 9.483 12.6636 9.26851 12.7335C8.15593 13.0961 6.89542 13.432 5.79021 13.6932L5.72368 13.7088C5.60034 13.7378 5.47902 13.7658 5.36017 13.7928C5.21314 13.8262 5.06988 13.858 4.9312 13.8882C4.5156 13.9785 4.21647 13.5373 4.42224 13.1835L6.5169 10.2701C6.71034 10.001 6.64905 9.62611 6.38 9.43267C6.11095 9.23923 5.73603 9.30053 5.54259 9.56958L4.09442 11.5838C2.63583 10.6105 1.69995 9.10443 1.69995 7.41394C1.69995 4.47919 4.52056 2.1001 7.99995 2.1001C11.4793 2.1001 14.3 4.47919 14.3 7.41394Z" fill="#E1E2E4"/>
</svg>
