<svg width="25" height="24" viewBox="0 0 25 24" fill="none" xmlns="http://www.w3.org/2000/svg">
<path d="M20.425 21V18.75C20.425 17.5565 19.9877 16.4119 19.2094 15.568C18.4312 14.7241 17.3756 14.25 16.275 14.25H7.97495C6.8743 14.25 5.81873 14.7241 5.04046 15.568C4.26218 16.4119 3.82495 17.5565 3.82495 18.75V21" fill="#E1E2E4"/>
<path d="M20.425 21V18.75C20.425 17.5565 19.9877 16.4119 19.2094 15.568C18.4312 14.7241 17.3756 14.25 16.275 14.25H7.97495C6.8743 14.25 5.81873 14.7241 5.04046 15.568C4.26218 16.4119 3.82495 17.5565 3.82495 18.75V21H20.425Z" stroke="#E1E2E4" stroke-width="2" stroke-linecap="round" stroke-linejoin="round"/>
<path d="M12.125 10.8C14.2789 10.8 16.025 9.05391 16.025 6.9C16.025 4.74609 14.2789 3 12.125 3C9.9711 3 8.22501 4.74609 8.22501 6.9C8.22501 9.05391 9.9711 10.8 12.125 10.8Z" fill="#E1E2E4" stroke="#E1E2E4" stroke-width="2" stroke-linecap="round" stroke-linejoin="round"/>
</svg>
