<svg width="31" height="30" viewBox="0 0 31 30" fill="none" xmlns="http://www.w3.org/2000/svg">
<mask id="path-1-inside-1_1732_41973" fill="white">
<path fill-rule="evenodd" clip-rule="evenodd" d="M7.46137 10.5C7.46137 6.08172 11.0431 2.5 15.4614 2.5H16.2054C20.6236 2.5 24.2054 6.08172 24.2054 10.5V16.8317L26.1481 20.232C26.6814 21.1653 26.0075 22.3265 24.9325 22.3265H6.73413C5.65921 22.3265 4.9853 21.1653 5.51855 20.232L7.46137 16.8316V10.5ZM18.815 25.3433C18.9879 24.8188 18.5251 24.3601 17.9728 24.3601H15.8333H13.6938C13.1416 24.3601 12.6788 24.8188 12.8517 25.3433C12.876 25.417 12.9031 25.4899 12.9328 25.5617C13.0906 25.9427 13.3219 26.2888 13.6134 26.5804C13.9049 26.872 14.251 27.1033 14.6319 27.261C15.0128 27.4188 15.4211 27.5001 15.8333 27.5001C16.2456 27.5001 16.6539 27.4188 17.0348 27.261C17.4157 27.1033 17.7618 26.872 18.0533 26.5804C18.3448 26.2888 18.5761 25.9427 18.7339 25.5617C18.7636 25.4899 18.7907 25.417 18.815 25.3433Z"/>
</mask>
<path fill-rule="evenodd" clip-rule="evenodd" d="M7.46137 10.5C7.46137 6.08172 11.0431 2.5 15.4614 2.5H16.2054C20.6236 2.5 24.2054 6.08172 24.2054 10.5V16.8317L26.1481 20.232C26.6814 21.1653 26.0075 22.3265 24.9325 22.3265H6.73413C5.65921 22.3265 4.9853 21.1653 5.51855 20.232L7.46137 16.8316V10.5ZM18.815 25.3433C18.9879 24.8188 18.5251 24.3601 17.9728 24.3601H15.8333H13.6938C13.1416 24.3601 12.6788 24.8188 12.8517 25.3433C12.876 25.417 12.9031 25.4899 12.9328 25.5617C13.0906 25.9427 13.3219 26.2888 13.6134 26.5804C13.9049 26.872 14.251 27.1033 14.6319 27.261C15.0128 27.4188 15.4211 27.5001 15.8333 27.5001C16.2456 27.5001 16.6539 27.4188 17.0348 27.261C17.4157 27.1033 17.7618 26.872 18.0533 26.5804C18.3448 26.2888 18.5761 25.9427 18.7339 25.5617C18.7636 25.4899 18.7907 25.417 18.815 25.3433Z" fill="#FF6B00"/>
<path d="M24.2054 16.8317H22.6054V17.2565L22.8161 17.6254L24.2054 16.8317ZM26.1481 20.232L27.5374 19.4382L26.1481 20.232ZM5.51855 20.232L4.12931 19.4382L5.51855 20.232ZM7.46137 16.8316L8.85061 17.6253L9.06137 17.2564V16.8316H7.46137ZM18.815 25.3433L20.3345 25.8443L20.3345 25.8443L18.815 25.3433ZM12.8517 25.3433L11.3322 25.8443H11.3322L12.8517 25.3433ZM12.9328 25.5617L11.4546 26.174L11.4546 26.174L12.9328 25.5617ZM13.6134 26.5804L14.7448 25.4491L14.7448 25.4491L13.6134 26.5804ZM14.6319 27.261L15.2443 25.7829L15.2443 25.7829L14.6319 27.261ZM17.0348 27.261L16.4224 25.7829L16.4224 25.7829L17.0348 27.261ZM18.0533 26.5804L19.1847 27.7117L19.1848 27.7117L18.0533 26.5804ZM18.7339 25.5617L17.2556 24.9495L17.2556 24.9495L18.7339 25.5617ZM15.4614 0.9C10.1594 0.9 5.86137 5.19807 5.86137 10.5H9.06137C9.06137 6.96538 11.9267 4.1 15.4614 4.1V0.9ZM16.2054 0.9H15.4614V4.1H16.2054V0.9ZM25.8054 10.5C25.8054 5.19807 21.5073 0.9 16.2054 0.9V4.1C19.74 4.1 22.6054 6.96538 22.6054 10.5H25.8054ZM25.8054 16.8317V10.5H22.6054V16.8317H25.8054ZM27.5374 19.4382L25.5946 16.0379L22.8161 17.6254L24.7589 21.0257L27.5374 19.4382ZM24.9325 23.9265C27.2359 23.9265 28.68 21.4382 27.5374 19.4382L24.7589 21.0257C24.6827 20.8924 24.779 20.7265 24.9325 20.7265V23.9265ZM6.73413 23.9265H24.9325V20.7265H6.73413V23.9265ZM4.12931 19.4382C2.98663 21.4382 4.43073 23.9265 6.73413 23.9265V20.7265C6.88769 20.7265 6.98396 20.8924 6.90778 21.0257L4.12931 19.4382ZM6.07214 16.0378L4.12931 19.4382L6.90778 21.0257L8.85061 17.6253L6.07214 16.0378ZM5.86137 10.5V16.8316H9.06137V10.5H5.86137ZM17.9728 25.9601C17.8189 25.9601 17.6342 25.8996 17.4795 25.7286C17.2976 25.5276 17.1833 25.1826 17.2954 24.8424L20.3345 25.8443C20.6196 24.9796 20.3603 24.1429 19.8522 23.5814C19.3713 23.0501 18.679 22.7601 17.9728 22.7601V25.9601ZM15.8333 25.9601H17.9728V22.7601H15.8333V25.9601ZM13.6938 25.9601H15.8333V22.7601H13.6938V25.9601ZM14.3713 24.8424C14.4834 25.1826 14.3691 25.5276 14.1872 25.7286C14.0325 25.8996 13.8477 25.9601 13.6938 25.9601V22.7601C12.9877 22.7601 12.2954 23.0501 11.8145 23.5814C11.3064 24.1429 11.0471 24.9796 11.3322 25.8443L14.3713 24.8424ZM14.4111 24.9495C14.3965 24.9143 14.3832 24.8785 14.3713 24.8424L11.3322 25.8443C11.3688 25.9555 11.4096 26.0654 11.4546 26.174L14.4111 24.9495ZM14.7448 25.4491C14.6019 25.3061 14.4884 25.1364 14.4111 24.9495L11.4546 26.174C11.6928 26.749 12.0418 27.2715 12.4819 27.7117L14.7448 25.4491ZM15.2443 25.7829C15.0575 25.7055 14.8878 25.5921 14.7448 25.4491L12.4819 27.7117C12.922 28.1518 13.4445 28.501 14.0195 28.7392L15.2443 25.7829ZM15.8333 25.9001C15.6312 25.9001 15.431 25.8602 15.2443 25.7829L14.0195 28.7392C14.5946 28.9774 15.2109 29.1001 15.8333 29.1001V25.9001ZM16.4224 25.7829C16.2356 25.8602 16.0355 25.9001 15.8333 25.9001V29.1001C16.4558 29.1001 17.0721 28.9774 17.6471 28.7392L16.4224 25.7829ZM16.9219 25.4491C16.7789 25.5921 16.6092 25.7055 16.4224 25.7829L17.6471 28.7392C18.2222 28.501 18.7447 28.1518 19.1847 27.7117L16.9219 25.4491ZM17.2556 24.9495C17.1782 25.1364 17.0648 25.3061 16.9219 25.4491L19.1848 27.7117C19.6248 27.2715 19.9739 26.749 20.2121 26.174L17.2556 24.9495ZM17.2954 24.8424C17.2835 24.8785 17.2702 24.9143 17.2556 24.9495L20.2121 26.174C20.257 26.0654 20.2979 25.9555 20.3345 25.8443L17.2954 24.8424Z" fill="#FF6B00" mask="url(#path-1-inside-1_1732_41973)"/>
</svg>
