<svg width="31" height="30" viewBox="0 0 31 30" fill="none" xmlns="http://www.w3.org/2000/svg">
<path d="M24.7198 18.5568H24.2942V10.9189C24.2942 6.27041 20.5061 2.50195 15.8333 2.50195C11.1605 2.50195 7.37232 6.27041 7.37232 10.9189V18.5568H6.94681C5.7844 18.5568 4.83333 19.5029 4.83333 20.6593C4.83333 21.8157 5.7844 22.7618 6.94681 22.7618H24.7198C25.8822 22.7618 26.8333 21.8156 26.8333 20.6593C26.8333 19.5029 25.8823 18.5568 24.7198 18.5568Z" fill="#FF6B00"/>
<path d="M19.3458 24.321H12.3209C11.9311 24.321 11.6268 24.6688 11.6943 25.0506C12.0413 27.0119 13.7624 28.502 15.8334 28.502C17.9044 28.502 19.6256 27.0118 19.9725 25.0506C20.04 24.6687 19.7356 24.321 19.3458 24.321Z" fill="#FF6B00"/>
</svg>
