<svg width="24" height="24" viewBox="0 0 24 24" fill="none" xmlns="http://www.w3.org/2000/svg">
<path fill-rule="evenodd" clip-rule="evenodd" d="M12.3838 2.5763C12.2656 2.52714 12.136 2.5 12 2.5C11.7265 2.5 11.4787 2.60977 11.2981 2.78766C11.2959 2.78991 11.2936 2.79216 11.2913 2.79443C11.1965 2.88964 11.1248 2.99923 11.0763 3.11617C11.0272 3.23405 11.0001 3.36333 11 3.49893C11 3.49929 11 3.49964 11 3.5V3.50023V17.2664C11 17.8187 11.4477 18.2664 12 18.2664C12.5523 18.2664 13 17.8187 13 17.2664V5.92151L16.6496 9.58675C17.0393 9.97811 17.6725 9.97946 18.0638 9.58977C18.4552 9.20008 18.4565 8.56692 18.0668 8.17556L12.7089 2.79472M12.3838 2.5763C12.5007 2.62484 12.6103 2.69653 12.7055 2.79136L12.3838 2.5763ZM5.5 13.6375C5.5 13.0852 5.05228 12.6375 4.5 12.6375C3.94772 12.6375 3.5 13.0852 3.5 13.6375V20.5C3.5 21.0523 3.94772 21.5 4.5 21.5H19.5C20.0523 21.5 20.5 21.0523 20.5 20.5V13.6375C20.5 13.0852 20.0523 12.6375 19.5 12.6375C18.9477 12.6375 18.5 13.0852 18.5 13.6375V19.5H5.5V13.6375ZM9.84886 5.6032C10.2394 5.99372 10.2394 6.62689 9.84886 7.01741L7.34886 9.51741C6.95834 9.90793 6.32517 9.90793 5.93465 9.51741C5.54412 9.12688 5.54412 8.49372 5.93465 8.10319L8.43465 5.6032C8.82517 5.21267 9.45834 5.21267 9.84886 5.6032Z" fill="#383E4A"/>
</svg>
