<svg width="14" height="14" viewBox="0 0 14 14" fill="none" xmlns="http://www.w3.org/2000/svg">
<path d="M6.4585 1.84161C6.67584 1.38613 7.32418 1.38613 7.54152 1.8416L8.74562 4.36498C8.83308 4.54829 9.00735 4.6749 9.20871 4.70144L11.9807 5.06684C12.481 5.13279 12.6814 5.7494 12.3153 6.09685L10.2876 8.02178C10.1403 8.16161 10.0737 8.36647 10.1107 8.56618L10.6197 11.3154C10.7116 11.8116 10.1871 12.1927 9.74356 11.952L7.28622 10.6183C7.10771 10.5214 6.89231 10.5214 6.7138 10.6183L4.25646 11.952C3.81291 12.1927 3.2884 11.8116 3.38028 11.3154L3.88935 8.56618C3.92634 8.36647 3.85977 8.16161 3.71247 8.02178L1.68468 6.09685C1.31866 5.7494 1.51901 5.13279 2.01935 5.06684L4.79131 4.70144C4.99267 4.6749 5.16694 4.54829 5.25441 4.36498L6.4585 1.84161Z" fill="#FF6B00"/>
</svg>
