<svg width="28" height="28" viewBox="0 0 28 28" fill="none" xmlns="http://www.w3.org/2000/svg">
<path d="M13.2826 1.45359C13.5761 0.858994 14.4239 0.858992 14.7174 1.45359L17.9284 7.95973C18.0449 8.19584 18.2701 8.3595 18.5307 8.39736L25.7107 9.44067C26.3668 9.53602 26.6288 10.3424 26.154 10.8052L20.9586 15.8695C20.77 16.0533 20.684 16.3181 20.7285 16.5777L21.955 23.7286C22.0671 24.3821 21.3811 24.8805 20.7942 24.5719L14.3723 21.1957C14.1392 21.0732 13.8608 21.0732 13.6277 21.1957L7.20579 24.5719C6.61888 24.8805 5.93294 24.3821 6.04502 23.7286L7.27151 16.5777C7.31602 16.3181 7.22998 16.0533 7.04143 15.8695L1.84597 10.8052C1.37116 10.3424 1.63316 9.53602 2.28934 9.44067L9.46929 8.39736C9.72986 8.3595 9.95511 8.19584 10.0716 7.95973L13.2826 1.45359Z" fill="#ECECEE"/>
</svg>
