<svg
  width="14"
  height="14"
  viewBox="0 0 14 14"
  fill="none"
  xmlns="http://www.w3.org/2000/svg">
  <path
    d="M6.77582 1.95425C6.86752 1.76844 7.13248 1.76844 7.22418 1.95425L8.70519 4.95509C8.7416 5.02887 8.812 5.08002 8.89342 5.09185L12.205 5.57306C12.4101 5.60285 12.492 5.85485 12.3436 5.99948L9.94729 8.33531C9.88836 8.39274 9.86148 8.47549 9.87539 8.55659L10.4411 11.8548C10.4761 12.0591 10.2618 12.2148 10.0783 12.1184L7.11634 10.5612C7.0435 10.5229 6.9565 10.5229 6.88366 10.5612L3.92166 12.1184C3.73825 12.2148 3.52389 12.0591 3.55892 11.8548L4.12461 8.55659C4.13852 8.47549 4.11163 8.39274 4.05271 8.33531L1.6564 5.99948C1.50802 5.85485 1.5899 5.60285 1.79495 5.57306L5.10658 5.09185C5.188 5.08002 5.2584 5.02887 5.29481 4.95509L6.77582 1.95425Z"
    fill='#FF6B00'
    stroke='#FF6B00'
    stroke-width="0.6"
  />
</svg>
