<svg width="14" height="14" viewBox="0 0 14 14" fill="none" xmlns="http://www.w3.org/2000/svg">
<path d="M12.7011 5.63245C12.665 5.52797 12.5994 5.43619 12.5122 5.36825C12.425 5.30032 12.3199 5.25914 12.2098 5.24972L8.9594 4.77559L7.50272 1.82225C7.45595 1.72566 7.38291 1.64421 7.29199 1.58722C7.20106 1.53023 7.09591 1.5 6.9886 1.5C6.88129 1.5 6.77615 1.53023 6.68522 1.58722C6.59429 1.64421 6.52126 1.72566 6.47448 1.82225L5.01781 4.76987L1.76742 5.24972C1.66169 5.26475 1.5623 5.30911 1.48051 5.37777C1.39872 5.44643 1.33782 5.53664 1.30471 5.63817C1.2744 5.73738 1.27168 5.84297 1.29684 5.94361C1.322 6.04425 1.37409 6.13614 1.44752 6.20941L3.80676 8.49439L3.23552 11.7391C3.21246 11.8467 3.22098 11.9587 3.26007 12.0616C3.29916 12.1645 3.36715 12.2539 3.45587 12.3191C3.54458 12.3843 3.65023 12.4224 3.76011 12.429C3.86999 12.4355 3.97943 12.4102 4.07525 12.356L6.9886 10.8308L9.90196 12.356C9.98213 12.4012 10.0727 12.4249 10.1647 12.4246C10.2857 12.425 10.4037 12.387 10.5018 12.316C10.5904 12.2525 10.659 12.165 10.6995 12.0638C10.74 11.9626 10.7507 11.8519 10.7303 11.7448L10.159 8.50011L12.5183 6.21512C12.6007 6.14525 12.6617 6.05341 12.6941 5.95027C12.7264 5.84713 12.7288 5.73692 12.7011 5.63245ZM9.15934 7.88887C9.09322 7.95309 9.04362 8.03234 9.01477 8.11988C8.98592 8.20741 8.97869 8.30063 8.99368 8.39157L9.40497 10.7908L7.55985 9.81968V4.52424L8.06254 5.54677C8.1037 5.63065 8.1648 5.70315 8.24049 5.75793C8.31618 5.81271 8.40415 5.84808 8.49669 5.86095L10.9016 6.20941L9.15934 7.88887Z" fill="#FF6B00"/>
</svg>
