<svg width="14" height="14" viewBox="0 0 14 14" fill="none" xmlns="http://www.w3.org/2000/svg">
<path fill-rule="evenodd" clip-rule="evenodd" d="M6.99948 1.2998C7.33085 1.2998 7.59947 1.56843 7.59947 1.8998V3.63518C8.24343 3.67871 9.00679 3.8123 9.81341 4.18378L11.3243 2.66778C11.5582 2.43307 11.9381 2.43243 12.1728 2.66634C12.4075 2.90026 12.4082 3.28016 12.1743 3.51487L10.8805 4.81298C11.696 5.40799 12.5214 6.2946 13.2844 7.6131C13.3719 7.7642 13.3719 7.9518 13.2844 8.1029C11.1504 11.7904 8.52876 12.0998 7.00003 12.0998C5.47129 12.0998 2.8496 11.7904 0.715619 8.1029C0.62816 7.9518 0.62816 7.7642 0.715619 7.6131C1.47857 6.29474 2.30386 5.40818 3.11926 4.81317L1.82535 3.51487C1.59143 3.28016 1.59207 2.90026 1.82678 2.66634C2.06149 2.43243 2.44139 2.43307 2.67531 2.66778L4.18633 4.18392C4.9926 3.81255 5.75566 3.67886 6.39948 3.63525V1.8998C6.39948 1.56843 6.6681 1.2998 6.99948 1.2998ZM8.62352 7.83418C8.62352 8.73388 7.89663 9.46324 6.99996 9.46324C6.1033 9.46324 5.3764 8.73388 5.3764 7.83418C5.3764 6.93447 6.1033 6.20512 6.99996 6.20512C7.89663 6.20512 8.62352 6.93447 8.62352 7.83418Z" fill="#C6C8CD"/>
</svg>
