<svg width="20" height="20" viewBox="0 0 20 20" fill="none" xmlns="http://www.w3.org/2000/svg">
<path d="M16.9996 13.4817V15.5893C17.0004 15.7849 16.9602 15.9786 16.8817 16.1578C16.8031 16.3371 16.6879 16.498 16.5435 16.6303C16.399 16.7626 16.2285 16.8633 16.0428 16.9259C15.8571 16.9886 15.6603 17.0119 15.465 16.9943C13.299 16.7594 11.2183 16.0207 9.39023 14.8376C7.68945 13.7589 6.24748 12.3198 5.16674 10.6224C3.9771 8.78969 3.23677 6.70305 3.00571 4.53156C2.98812 4.33729 3.01126 4.1415 3.07364 3.95664C3.13603 3.77178 3.2363 3.60191 3.36807 3.45785C3.49984 3.31378 3.66022 3.19868 3.839 3.11986C4.01779 3.04105 4.21106 3.00025 4.40651 3.00007H6.51825C6.85987 2.99671 7.19105 3.11744 7.45007 3.33976C7.70909 3.56208 7.87827 3.87081 7.92609 4.20841C8.01522 4.88287 8.18052 5.54511 8.41883 6.18249C8.51354 6.43394 8.53403 6.70721 8.47789 6.96993C8.42175 7.23265 8.29132 7.4738 8.10207 7.66481L7.20809 8.55701C8.21016 10.3158 9.6693 11.7721 11.4316 12.7721L12.3256 11.8799C12.517 11.6911 12.7586 11.5609 13.0218 11.5049C13.2851 11.4488 13.5589 11.4693 13.8108 11.5638C14.4495 11.8016 15.113 11.9666 15.7888 12.0556C16.1308 12.1037 16.4431 12.2756 16.6663 12.5386C16.8895 12.8015 17.0081 13.1372 16.9996 13.4817Z" fill="#E1E2E4" stroke="#E1E2E4" stroke-width="0.3" stroke-linecap="round" stroke-linejoin="round"/>
</svg>
