<svg width="20" height="20" viewBox="0 0 20 20" fill="none" xmlns="http://www.w3.org/2000/svg">
<path fill-rule="evenodd" clip-rule="evenodd" d="M2 10C2 5.58172 5.58172 2 10 2C14.4183 2 18 5.58172 18 10C18 14.4183 14.4183 18 10 18C5.58172 18 2 14.4183 2 10ZM9.19324 6.85713C9.19324 6.41531 9.55141 6.05713 9.99324 6.05713H9.9999C10.4417 6.05713 10.7999 6.41531 10.7999 6.85713C10.7999 7.29896 10.4417 7.65713 9.9999 7.65713H9.99324C9.55141 7.65713 9.19324 7.29896 9.19324 6.85713ZM9.99324 8.91428C10.4351 8.91428 10.7932 9.27245 10.7932 9.71428V13.1428C10.7932 13.5847 10.4351 13.9428 9.99324 13.9428C9.55141 13.9428 9.19324 13.5847 9.19324 13.1428V9.71428C9.19324 9.27245 9.55141 8.91428 9.99324 8.91428Z" fill="#E1E2E4"/>
</svg>
