<svg width="20" height="20" viewBox="0 0 20 20" fill="none" xmlns="http://www.w3.org/2000/svg">
<path d="M16.1998 8.63636C16.1998 13.4091 9.9998 17.5 9.9998 17.5C9.9998 17.5 3.7998 13.4091 3.7998 8.63636C3.7998 7.0089 4.45302 5.44809 5.61574 4.2973C6.77847 3.14651 8.35546 2.5 9.9998 2.5C11.6441 2.5 13.2211 3.14651 14.3839 4.2973C15.5466 5.44809 16.1998 7.0089 16.1998 8.63636Z" fill="#E1E2E4" stroke="#E1E2E4" stroke-width="1.6" stroke-linecap="round" stroke-linejoin="round"/>
<path d="M9.98938 10.6678C11.1288 10.6678 12.0525 9.75364 12.0525 8.62592C12.0525 7.49819 11.1288 6.58398 9.98938 6.58398C8.84995 6.58398 7.92627 7.49819 7.92627 8.62592C7.92627 9.75364 8.84995 10.6678 9.98938 10.6678Z" fill="white" stroke="white" stroke-width="0.4" stroke-linecap="round" stroke-linejoin="round"/>
</svg>
