<svg width="25" height="24" viewBox="0 0 25 24" fill="none" xmlns="http://www.w3.org/2000/svg">
<path d="M7.67498 3H19.825V21H7.67498C7.07825 21 6.50595 20.7629 6.084 20.341C5.66204 19.919 5.42499 19.3467 5.42499 18.75V5.25C5.42499 4.65326 5.66204 4.08096 6.084 3.65901C6.50595 3.23705 7.07825 3 7.67498 3Z" fill="#E1E2E4" stroke="#E1E2E4" stroke-width="2" stroke-linecap="round" stroke-linejoin="round"/>
<path d="M5.42499 18.75C5.42499 17.5074 6.43235 16.5 7.67498 16.5H19.8221C19.8237 16.5 19.825 16.5013 19.825 16.5029V20.9971C19.825 20.9987 19.8237 21 19.8221 21H7.67499C6.43235 21 5.42499 19.9926 5.42499 18.75Z" fill="white" stroke="#E1E2E4" stroke-width="2"/>
</svg>
